<?xml version="1.0" encoding="iso-8859-1"?>
<!-- Generator: Adobe Illustrator 19.0.0, SVG Export Plug-In . SVG Version: 6.00 Build 0)  -->
<svg version="1.1" id="Capa_1" xmlns="http://www.w3.org/2000/svg" xmlns:xlink="http://www.w3.org/1999/xlink" x="0px" y="0px"
	 viewBox="0 0 511.999 511.999" style="enable-background:new 0 0 511.999 511.999;" xml:space="preserve">
<g>
	<g>
		<path d="M508.367,404.316c-9.68-22.569-37.181-33.407-60.092-23.647c-9.906,4.252-16.281,7.066-27.276,11.233V210.037h46
			c24.813,0,45-20.187,45-45v-17.574c0-12.148-4.801-23.539-13.304-31.942l-43.37-42.371c-1.37-1.365-2.82-2.619-4.326-3.782V45.038
			c0-24.813-20.187-45-45-45C331.561,0.039,271,60.599,271,135.038v30c0,8.271-6.729,15-15,15h-89.999
			c-9.642,0-19.112,1.338-28.21,3.929c-11.561-17.385-29.878-29.59-50.305-32.914c-46.064-7.488-87.484,27.678-87.484,73.983
			v121.999c0,8.284,6.716,15,15,15c16.871,0,32.456-5.603,45-15.041v32.622c-22.177-7.853-47.007,2.8-56.372,24.707
			c-9.764,22.797,0.847,49.301,23.669,59.088c70.948,30.326,143.118,48.551,228.7,48.551c86.204,0,158.705-18.569,228.717-48.558
			C507.523,453.623,518.133,427.119,508.367,404.316z M300.999,165.037v-30c0-57.897,47.103-104.999,104.999-104.999
			c8.271,0,15,6.729,15,15v15h-15c-41.355,0-74.999,33.645-74.999,74.999v30c0,8.271-6.729,15-15,15h-17.58
			C300.084,175.343,300.999,170.296,300.999,165.037z M181,210.037c5.806,0,115.09,0,119.999,0v47c0,8.271-6.729,15-15,15H196
			c-8.271,0-15-6.729-15-15V210.037z M151,211.616v45.421c0,24.813,20.187,45,45,45h89.999c24.813,0,45-20.187,45-45v-49.58
			c17.459-6.192,30-22.865,30-42.42v-30c0-24.813,20.187-45,45-45h17.574c4.006,0,7.773,1.56,10.606,4.393
			c0.041,0.042,0.083,0.082,0.124,0.123l43.353,42.355c2.801,2.827,4.343,6.573,4.343,10.556v17.574c0,8.271-6.729,15-15,15h-61
			c-8.284,0-15,6.716-15,15v207.069c-9.922,3-19.928,5.668-30,7.993v-3.065c0-41.355-33.645-74.999-74.999-74.999H196
			c-39.816,0-72.47,31.192-74.846,70.42c-10.486-3.142-20.877-6.665-31.153-10.561V287.036
			C90.001,250.483,116.696,218.899,151,211.616z M330.999,407.035v8.962c-24.815,4.04-49.907,6.073-74.998,6.1
			c-35.253,0.038-70.507-3.884-105-11.767v-3.295c0-24.813,20.187-45,45-45h89.999C310.812,362.036,330.999,382.223,330.999,407.035
			z M60.001,287.036c0,19.557-12.539,36.239-30,42.43V225.037c0-26.91,23.877-49.056,52.668-44.374
			c10.608,1.726,20.281,7.547,27.215,15.965c-6.675,4.302-12.95,9.396-18.709,15.242C71.072,232.277,60.001,258.972,60.001,287.036z
			 M472.899,435.83c-66.98,28.69-135.413,46.132-216.898,46.132c-81.755,0-149.886-17.491-216.893-46.129
			c-7.61-3.264-11.154-12.101-7.896-19.708c3.25-7.604,12.091-11.133,19.691-7.884c65.214,27.937,128.676,43.917,205.098,43.843
			c76.054-0.074,139.393-16.067,204.07-43.831c7.813-3.329,17.497,0.359,20.723,7.882
			C484.047,423.732,480.503,432.569,472.899,435.83z"/>
	</g>
</g>
<g>
	<g>
		<circle cx="405.996" cy="135.04" r="15"/>
	</g>
</g>
<g>
</g>
<g>
</g>
<g>
</g>
<g>
</g>
<g>
</g>
<g>
</g>
<g>
</g>
<g>
</g>
<g>
</g>
<g>
</g>
<g>
</g>
<g>
</g>
<g>
</g>
<g>
</g>
<g>
</g>
</svg>
