<svg id="Capa_1" enable-background="new 0 0 513.308 513.308" height="512" viewBox="0 0 513.308 513.308" width="512" xmlns="http://www.w3.org/2000/svg"><g><path d="m505.808 483.608h-230.204v-18.222c0-9.726-7.913-17.639-17.639-17.639h-32.403c-6.932-9.829-28.047-11.805-36.698-16.901 10.702-6.301 39.037-7.578 39.037-24.401 0-16.815-28.331-18.1-39.035-24.397 10.707-6.302 39.035-7.576 39.035-24.397 0-16.82-28.331-18.097-39.035-24.397 9.368-5.511 32.472-7.234 37.87-18.937h16.356c9.726 0 17.639-7.913 17.639-17.639v-19.002h8.63c.682 0 1.277.364 1.582.951l33.271 64.677c7.066 13.701 21.042 22.212 36.474 22.212 22.618 0 41.019-18.32 41.019-40.84 0-4.297-.678-8.553-2.009-12.629l-15.229-47.059c-1.276-3.94-5.503-6.097-9.445-4.826-3.94 1.275-6.102 5.504-4.826 9.445l15.234 47.077c.846 2.589 1.274 5.277 1.274 7.991 0 14.248-11.672 25.84-26.019 25.84-9.793 0-18.66-5.397-23.139-14.08l-33.279-64.694c-2.902-5.592-8.614-9.065-14.908-9.065h-119.484c-6.316 0-12.028 3.486-14.9 9.09l-21.677 42.138c-1.896 3.684-.445 8.205 3.238 10.1 3.683 1.897 8.204.447 10.1-3.238l21.682-42.147c.294-.572.905-.942 1.558-.942h10.476v19.002c0 9.726 7.913 17.639 17.639 17.639h18.741c-11.514 3.521-23.935 7.746-23.935 18.937 0 16.819 28.337 18.101 39.035 24.397-10.702 6.299-39.035 7.576-39.035 24.397 0 16.818 28.346 18.102 39.037 24.398-10.714 6.306-39.037 7.579-39.037 24.4 0 9.148 8.299 13.642 17.619 16.901h-47.682c-9.726 0-17.639 7.913-17.639 17.639v18.222h-117.597c-4.143 0-7.5 3.357-7.5 7.5s3.357 7.5 7.5 7.5h498.308c4.143 0 7.5-3.357 7.5-7.5s-3.358-7.501-7.5-7.501zm-330.455-186.93v-19.002h70.378v19.002c0 1.455-1.184 2.639-2.639 2.639h-65.101c-1.455-.001-2.638-1.184-2.638-2.639zm-35.258 186.93v-18.222c0-1.455 1.184-2.639 2.639-2.639h115.231c1.455 0 2.639 1.184 2.639 2.639v18.222z"/><path d="m51.052 248.406c2.814.792 5.716 1.244 8.648 1.386l-19.858 61.374c-3.905 12.059-2.517 24.884 3.811 35.187 14.681 23.904 49.897 25.929 67.42 3.167 2.527-3.281 1.915-7.99-1.367-10.518-3.283-2.527-7.992-1.914-10.518 1.367-11.243 14.601-33.67 12.925-42.753-1.866-4.027-6.559-4.874-14.838-2.322-22.718 3.006-9.289 32.554-100.613 37.468-115.798 7.164-22.105 25.394-37.814 47.059-42.515v3.868c0 13.57 11.04 24.61 24.61 24.61h51.1c13.57 0 24.61-11.04 24.61-24.61v-5.324h33.098c7.142 0 13.84-2.766 18.854-7.781l51.789-51.682c15.92-15.849 41.826-15.847 57.742-.006 11.627 11.598 48.649 48.529 58.349 58.205 8.691 8.683 8.434 22.838-.741 31.179-6.355 5.785-16.211 7.085-24.511 3.236l-47.277-22.017c-9.854-4.6-21.651-2.529-29.351 5.153l-25.628 25.54c-1.999 1.992-2.711 4.938-1.842 7.622l11.312 34.954c1.276 3.94 5.504 6.099 9.445 4.826 3.94-1.275 6.102-5.504 4.826-9.445l-9.896-30.578 22.373-22.297c3.259-3.251 8.249-4.126 12.421-2.181l47.295 22.024c13.937 6.463 29.999 4.203 40.926-5.743 15.511-14.102 16.016-38.132 1.243-52.892l-27.099-27.011 42.548-40.064c3.016-2.839 3.158-7.586.318-10.602-2.841-3.018-7.588-3.159-10.602-.318l-27.8 26.178c.929-4.118 1.4-8.3 1.4-12.482 0-20.736-11.301-39.885-29.494-49.974-1.445-.801-2.95-1.591-4.6-2.414-3.707-1.852-8.21-.347-10.061 3.359s-.347 8.21 3.359 10.061c1.456.728 2.774 1.419 4.029 2.113 13.426 7.445 21.766 21.567 21.766 36.854 0 4.133-.627 8.279-1.862 12.316l-3.284 10.701-16.977-16.932c-21.756-21.654-57.154-21.651-78.918.007l-51.802 51.695c-2.155 2.156-5.163 3.393-8.252 3.393h-39.35l37.178-60.782c22.579-36.911 64.796-56.189 107.532-49.104 4.092.675 7.948-2.087 8.625-6.174.677-4.086-2.087-7.947-6.174-8.625-23.484-3.89-47.422-.791-69.226 8.963-22.277 9.966-40.796 26.258-53.554 47.113l-41.966 68.609h-62.96c-11.882 0-24.217 2.748-35.561 8.495l-12.354 2.046c-34.212 5.652-61.562 31.046-69.676 64.693l-.703 2.917c-3.079 12.841 4.474 25.686 17.185 29.242zm172.907-87.066c0 5.299-4.312 9.61-9.61 9.61h-51.1c-5.299 0-9.61-4.312-9.61-9.61v-5.324h70.32zm-175.506 61.334.701-2.908c5.327-22.087 20.704-39.856 40.984-48.561-13.371 17.108-14.039 30.993-25.541 63.451-3.152.394-6.416.174-9.494-.692-4.917-1.376-7.838-6.338-6.65-11.29z"/><path d="m403.036 124.006v-3.99c0-4.143-3.357-7.5-7.5-7.5s-7.5 3.357-7.5 7.5v3.99c0 4.143 3.357 7.5 7.5 7.5s7.5-3.358 7.5-7.5z"/></g></svg>